<?xml version="1.0" encoding="utf-8"?>
<!-- Generator: Adobe Illustrator 18.1.1, SVG Export Plug-In . SVG Version: 6.00 Build 0)  -->
<!DOCTYPE svg PUBLIC "-//W3C//DTD SVG 1.1//EN" "http://www.w3.org/Graphics/SVG/1.1/DTD/svg11.dtd">
<svg version="1.1" id="Layer_1" xmlns="http://www.w3.org/2000/svg" xmlns:xlink="http://www.w3.org/1999/xlink" x="0px" y="0px"
	 viewBox="0 0 400 400" enable-background="new 0 0 400 400" xml:space="preserve">
<g>
	<g opacity="0.35">
		<path fill="#FFFFFF" d="M387.9,120.5H12.1c0-10.3,8.4-18.7,18.8-18.7h64.8c5.6,0,10.9-2.5,14.4-6.7l22.2-26.6
			c7.1-8.5,17.7-13.5,28.9-13.5h77.5c11.2,0,21.7,4.9,28.9,13.5l22.2,26.6c3.6,4.3,8.9,6.7,14.4,6.7h64.8
			C379.5,101.8,387.9,110.2,387.9,120.5z M12.1,345c0,10.3,8.4,18.7,18.8,18.7h338.2c10.4,0,18.8-8.4,18.8-18.7v-9.4H12.1V345z
			 M200,295.9c35,0,63.4-28.3,63.4-63.1S235,169.6,200,169.6s-63.4,28.3-63.4,63.1S165,295.9,200,295.9z M12.1,129.9h375.7v196.4
			H12.1V129.9z M115.5,232.7c0,46.5,37.8,84.2,84.5,84.2s84.5-37.7,84.5-84.2s-37.8-84.2-84.5-84.2S115.5,186.3,115.5,232.7z"/>
		<path fill="none" stroke="#FFFFFF" stroke-width="5" stroke-miterlimit="10" d="M387.9,120.5H12.1c0-10.3,8.4-18.7,18.8-18.7h64.8
			c5.6,0,10.9-2.5,14.4-6.7l22.2-26.6c7.1-8.5,17.7-13.5,28.9-13.5h77.5c11.2,0,21.7,4.9,28.9,13.5l22.2,26.6
			c3.6,4.3,8.9,6.7,14.4,6.7h64.8C379.5,101.8,387.9,110.2,387.9,120.5z M12.1,345c0,10.3,8.4,18.7,18.8,18.7h338.2
			c10.4,0,18.8-8.4,18.8-18.7v-9.4H12.1V345z M200,295.9c35,0,63.4-28.3,63.4-63.1S235,169.6,200,169.6s-63.4,28.3-63.4,63.1
			S165,295.9,200,295.9z M12.1,129.9h375.7v196.4H12.1V129.9z M115.5,232.7c0,46.5,37.8,84.2,84.5,84.2s84.5-37.7,84.5-84.2
			s-37.8-84.2-84.5-84.2S115.5,186.3,115.5,232.7z"/>
	</g>
	<g>
		<g>
			<path fill="#FFFFFF" d="M387.9,111.2H12.1c0-10.3,8.4-18.7,18.8-18.7h64.8c5.6,0,10.9-2.5,14.4-6.7l22.2-26.6
				c7.1-8.5,17.7-13.5,28.9-13.5h77.5c11.2,0,21.7,4.9,28.9,13.5l22.2,26.6c3.6,4.3,8.9,6.7,14.4,6.7h64.8
				C379.5,92.5,387.9,100.8,387.9,111.2z M12.1,335.6c0,10.3,8.4,18.7,18.8,18.7h338.2c10.4,0,18.8-8.4,18.8-18.7v-9.4H12.1V335.6z
				 M200,286.5c35,0,63.4-28.3,63.4-63.1S235,160.3,200,160.3s-63.4,28.3-63.4,63.1S165,286.5,200,286.5z M12.1,120.5h375.7v196.4
				H12.1V120.5z M115.5,223.4c0,46.5,37.8,84.2,84.5,84.2s84.5-37.7,84.5-84.2s-37.8-84.2-84.5-84.2S115.5,176.9,115.5,223.4z"/>
		</g>
		<g>
			<path fill="none" stroke="#000000" stroke-width="5" stroke-miterlimit="10" d="M387.9,111.2H12.1c0-10.3,8.4-18.7,18.8-18.7
				h64.8c5.6,0,10.9-2.5,14.4-6.7l22.2-26.6c7.1-8.5,17.7-13.5,28.9-13.5h77.5c11.2,0,21.7,4.9,28.9,13.5l22.2,26.6
				c3.6,4.3,8.9,6.7,14.4,6.7h64.8C379.5,92.5,387.9,100.8,387.9,111.2z M12.1,335.6c0,10.3,8.4,18.7,18.8,18.7h338.2
				c10.4,0,18.8-8.4,18.8-18.7v-9.4H12.1V335.6z M200,286.5c35,0,63.4-28.3,63.4-63.1S235,160.3,200,160.3s-63.4,28.3-63.4,63.1
				S165,286.5,200,286.5z M12.1,120.5h375.7v196.4H12.1V120.5z M115.5,223.4c0,46.5,37.8,84.2,84.5,84.2s84.5-37.7,84.5-84.2
				s-37.8-84.2-84.5-84.2S115.5,176.9,115.5,223.4z"/>
		</g>
	</g>
</g>
</svg>
