<?xml version="1.0" encoding="utf-8"?>
<!-- Generator: Adobe Illustrator 18.1.1, SVG Export Plug-In . SVG Version: 6.00 Build 0)  -->
<svg version="1.1" id="Layer_1" xmlns="http://www.w3.org/2000/svg" xmlns:xlink="http://www.w3.org/1999/xlink" x="0px" y="0px"
	 viewBox="0 0 400 400" enable-background="new 0 0 400 400" xml:space="preserve">
<g>
	<path fill="#755F48" d="M333.3,67.7h-70.1v0v-14c0-15.5-12.6-28-28-28H165c-15.5,0-28,12.6-28,28v14v0H66.9v14h14l13,261.2
		c1,18.7,16.3,33.3,35,33.3h142.3c18.7,0,34.1-14.6,35-33.3l13-261.2h14V67.7z M151,53.7c0-7.7,6.3-14,14-14h70.1
		c7.7,0,14,6.3,14,14v14H151V53.7z M292.3,342.2c-0.6,11.2-9.8,20-21,20H128.9c-11.2,0-20.4-8.8-21-20l-13-260.5h210.3L292.3,342.2z
		"/>
	<rect x="193.1" y="109.8" fill="#755F48" width="14" height="224.4"/>
	<polygon fill="#755F48" points="263.2,109.8 249.2,109.8 235.2,334.1 249.2,334.1 	"/>
	<polygon fill="#755F48" points="165,334.1 151,109.8 137,109.8 151,334.1 	"/>
</g>
</svg>
